<svg width="199" height="26" viewBox="0 0 199 26" fill="none" xmlns="http://www.w3.org/2000/svg">
<g clip-path="url(#clip0_959_2369)">
<path d="M59.5 0.649902H31.5C31.4 0.649902 31.3 0.849902 31.4 0.949902L35.2 5.2499C35.2 5.2499 35.3 5.3499 35.4 5.3499H43C43 10.9499 43 25.0499 43 25.1499C43 25.2499 43.1 25.3499 43.2 25.3499H48C48.1 25.3499 48.2 25.2499 48.2 25.1499V5.2499H55.8C55.9 5.2499 55.9 5.2499 56 5.1499L59.8 0.849902C59.7 0.849902 59.6 0.649902 59.5 0.649902Z" fill="#00B5D4"/>
<path d="M130.3 24.9499L126.5 20.6499C126.5 20.6499 126.4 20.5499 126.3 20.5499H112.6V0.849902C112.6 0.749902 112.5 0.649902 112.4 0.649902H107.6C107.5 0.649902 107.4 0.749902 107.4 0.849902V25.0499C107.4 25.1499 107.5 25.2499 107.6 25.2499H130.1C130.4 25.2499 130.4 25.0499 130.3 24.9499Z" fill="#00B5D4"/>
<path d="M160.7 24.9499L156.9 20.6499C156.9 20.6499 156.8 20.5499 156.7 20.5499H143V0.849902C143 0.749902 142.9 0.649902 142.8 0.649902H138C137.9 0.649902 137.8 0.749902 137.8 0.849902V25.0499C137.8 25.1499 137.9 25.2499 138 25.2499H160.5C160.7 25.2499 160.7 25.0499 160.7 24.9499Z" fill="#00B5D4"/>
<path d="M198.4 24.9499L185 0.749902C185 0.649902 184.9 0.649902 184.9 0.649902H182.2H179.5C179.4 0.649902 179.4 0.649902 179.4 0.749902L166 24.9499C166 25.0499 166 25.1499 166.1 25.1499H171C171.1 25.1499 171.1 25.1499 171.1 25.0499L174 19.7499H185.5C185.6 19.7499 185.7 19.6499 185.6 19.5499L183.2 15.2499L183.1 15.1499H176.5L182.2 5.1499L192.3 23.3499L193.3 25.2499C193.3 25.3499 193.4 25.3499 193.4 25.3499H198.3C198.4 25.2499 198.5 25.0499 198.4 24.9499Z" fill="#00B5D4"/>
<path d="M25.1 15.0499C24.7 14.2499 24.1 13.5499 23.4 12.9499C22.6 12.3499 21.7 11.8499 20.6 11.5499C19.5 11.1499 18.3 10.8499 17 10.6499L11.3 9.7499C10 9.6499 9.1 9.4499 8.4 9.2499C7.7 9.0499 7.2 8.8499 6.8 8.6499C6.5 8.4499 6.2 8.1499 6.1 7.9499C6 7.7499 6 7.5499 6 7.2499C6 6.7499 6.2 6.3499 6.5 5.9499C6.8 5.6499 7.3 5.3499 7.9 5.1499C8.5 4.9499 9.2 4.7499 9.9 4.6499C10.7 4.5499 11.4 4.4499 12.2 4.4499C13.6 4.4499 14.8 4.5499 15.8 4.7499C16.8 4.9499 17.6 5.2499 18.2 5.6499C18.8 5.9499 19.3 6.4499 19.6 6.8499L19.7 6.9499H25.1C25.2 6.9499 25.3 6.8499 25.3 6.7499C25.2 6.4499 24.8 5.4499 23.7 4.1499C23.5 3.9499 21.8 1.9499 18.7 0.949902C17 0.449902 14.9 0.149902 12.3 0.149902C12 0.149902 11.5 0.149902 10.8 0.149902C10.1 0.149902 9.4 0.249902 8.6 0.449902C7.7 0.549902 6.8 0.749902 5.9 1.0499C5 1.3499 4.2 1.7499 3.5 2.3499C2.7 2.8499 2.1 3.5499 1.6 4.4499C1.1 5.2499 0.9 6.3499 0.9 7.5499C0.9 9.4499 1.7 11.0499 3.2 12.2499C4.7 13.4499 6.9 14.2499 9.7 14.6499L15.5 15.4499C18.8 15.8499 20.5 16.8499 20.5 18.2499C20.5 18.7499 20.3 19.1499 20 19.5499C19.6 19.9499 19.2 20.2499 18.6 20.5499C18 20.8499 17.3 21.0499 16.4 21.1499C15.6 21.3499 14.6 21.3499 13.7 21.3499C12.1 21.3499 10.8 21.2499 9.8 20.9499C8.8 20.6499 7.9 20.3499 7.3 19.8499C6.7 19.4499 6.2 19.0499 5.9 18.5499L5.8 18.4499H0.2C0.1 18.4499 0 18.5499 0 18.6499C0.1 19.0499 0.4 19.7499 0.9 20.5499C1.4 21.3499 2.1 22.1499 3.1 22.8499C4.1 23.6499 5.5 24.2499 7.1 24.8499C8.8 25.4499 10.9 25.6499 13.5 25.6499C15.1 25.6499 16.7 25.5499 18.1 25.2499C19.5 24.9499 20.8 24.5499 21.9 23.8499C23 23.2499 23.9 22.3499 24.5 21.3499C25.1 20.3499 25.5 19.0499 25.5 17.6499C25.7 16.7499 25.5 15.8499 25.1 15.0499Z" fill="#00B5D4"/>
<path d="M99.8 0.649902H65.5C65.4 0.649902 65.3 0.849902 65.4 0.949902L69.2 5.2499C69.2 5.2499 69.3 5.3499 69.4 5.3499H96C96.1 5.3499 96.1 5.3499 96.2 5.2499L100 0.949902C100 0.849902 99.9 0.649902 99.8 0.649902Z" fill="#00B5D4"/>
<path d="M65.5 25.2498H99.8C99.9 25.2498 100 25.1498 99.9 24.9498L96.1 20.6498C96.1 20.6498 96 20.5498 95.9 20.5498H69.3C69.2 20.5498 69.2 20.5498 69.1 20.6498L65.3 24.9498C65.3 25.0498 65.3 25.2498 65.5 25.2498Z" fill="#00B5D4"/>
<path d="M95.9 15.2498H69.3C69.2 15.2498 69.1 15.1498 69.1 15.0498V10.7498C69.1 10.6498 69.2 10.5498 69.3 10.5498H95.9C96 10.5498 96.1 10.6498 96.1 10.7498V15.0498C96.1 15.1498 96 15.2498 95.9 15.2498Z" fill="#00B5D4"/>
</g>
<defs>
<clipPath id="clip0_959_2369">
<rect width="198.4" height="25.7" fill="white" transform="translate(0 0.149902)"/>
</clipPath>
</defs>
</svg>
